<?xml version="1.0" encoding="UTF-8"?>
<svg width="800" height="800" viewBox="0 0 128 128" xmlns="http://www.w3.org/2000/svg" xmlns:v="https://vecta.io/nano">
<radialGradient id="b" cx="61.8" cy="1.2" r="110.3" gradientUnits="userSpaceOnUse">
<stop stop-color="#f2a05b" offset=".2"/>
<stop stop-color="#f5ad68" offset=".2"/>
<stop stop-color="#fecc88" offset=".3"/>
<stop stop-color="#fecc88" offset=".7"/>
<stop stop-color="#fcc581" offset=".7"/>
<stop stop-color="#f7b16d" offset=".8"/>
<stop stop-color="#f3a05c" offset=".8"/>
<stop stop-color="#e6915b" offset=".8"/>
<stop stop-color="#d77f59" offset=".9"/>
<stop stop-color="#d17858" offset=".9"/>
</radialGradient>
<path d="M62 7s-7-5-7-3 0 8-2 11-5 4-7 5-27 10-34 35 4 45 21 55c14 8 23 7 23 7l-2 2h-5l-5 3 6-1 5-1 3-2-2 4c-1 1 1 2 3 2s3-6 3-6v4l1 3 4 1v-3l4 3 4 1v-3l-3-2-1-2s2-2 3-1l4 3 5 2 2-2-5-2-3-3s14-3 24-12c11-11 23-34 12-56S82 21 75 18c-3-1-4-3-5-5 0-3 0-10-2-11s-6 5-6 5z" fill="url(#b)"/>
<path d="m59 11c1 1 1-2 3-2 2-1 2 2 3 2 2-1 1-4 1-6s2-3 2-3h-3l-3 3s-2-3-4-3c-3 0-3 2-3 2l2 1c0 1 0 6 2 6z" fill="#d17759"/>
<radialGradient id="a" cx="61.1" cy="10.4" r="96.5" gradientUnits="userSpaceOnUse">
<stop stop-color="#f2a05b" offset=".5"/>
<stop stop-color="#ee9b5b" offset=".6"/>
<stop stop-color="#e38d5a" offset=".8"/>
<stop stop-color="#d17759" offset=".9"/>
</radialGradient>
<path d="M66 33c0 3 5 21 5 33 1 15-1 26-2 33l-4 14 4-6s4-13 5-25c1-10 0-23-2-36l-5-25-1-8 5 9 11 18c5 10 8 23 8 35s-3 19-5 24l-9 10-3 3s8-3 11-7 9-14 9-32c-1-18-6-29-9-36L72 19l18 14c8 7 15 17 16 34 1 13-3 22-7 28l-11 13 12-9s10-11 9-32-11-30-17-36L74 18c-4-2-4-4-5-5l-1-2-11 1h-1s-5 8-11 12c-4 3-14 10-21 20-6 10-7 21-6 31 1 12 6 24 16 30s22 8 22 8l-11-4c-5-2-10-4-15-11a47 47 0 0 1 4-62l13-11c5-3 8-9 8-9s2-2 1 2l-7 9c-3 5-7 9-13 23-5 15-4 28-2 35s4 12 8 17 14 11 14 11l-12-12c-4-6-6-12-7-19-2-7-3-17 2-30 3-11 6-14 9-19l9-13 3-7-1 9-3 12c-2 5-8 19-8 34 1 19 5 30 7 35l5 12 1-6s-7-15-9-27c-1-11-2-18 0-27l7-21 2-12 2-6 3 17z" fill="url(#a)"/>
<path d="m36 39c-3-1-5 2-7 6s-3 8 0 9 6-5 7-8c0-3 2-7 0-7zm6 7c-2 6-2 11 0 12s6-6 7-10c1-3 2-9 0-10s-5 4-7 8zm14 7c-1 4 0 6 2 6l2-6c1-2 2-6 0-7-3 0-3 3-4 7z" fill="#feeac4"/>
</svg>
