<svg xmlns="http://www.w3.org/2000/svg" width="64" height="64" style="shape-rendering:geometricPrecision;text-rendering:geometricPrecision;image-rendering:optimizeQuality;fill-rule:evenodd;clip-rule:evenodd"><path style="opacity:.719" fill="#0d0304" d="M49.5 2.5c7.497-.696 9.497 2.137 6 8.5-7.285.934-9.285-1.9-6-8.5z"/><path style="opacity:.435" d="M13.5 3.5h3v3c-3.067.38-4.067-.62-3-3z"/><path style="opacity:.398" d="M42.5 4.5c3.36.703 3.694 2.037 1 4-2.142-.937-2.476-2.27-1-4z"/><path style="opacity:1" fill="#e63b58" d="M51.5 5.5h3v3h-3v-3z"/><path style="opacity:.677" fill="#0a0202" d="M4.5 6.5c6.645-.523 8.311 1.977 5 7.5-3.942 1.418-6.275.084-7-4a11.81 11.81 0 0 1 2-3.5z"/><path style="opacity:.839" fill="#120505" d="M18.5 8.5h3c-.406 1.61-.406 2.943 0 4 17.407-6.371 29.573-1.038 36.5 16 2.945 15.953-3.222 26.453-18.5 31.5C24.379 62.53 14.212 56.696 9 42.5c-1.707-6.453-1.207-12.786 1.5-19-1.566.56-2.899-.106-4-2 1.168-1.717 2.835-2.384 5-2-.305-3.7 1.362-6.034 5-7l2-4z"/><path style="opacity:1" fill="#ca344d" d="M6.5 9.5c1.837.14 2.17.806 1 2-.798-.457-1.13-1.124-1-2z"/><path style="opacity:1" fill="#e63b58" d="M28.5 12.5c19.833-.315 28.666 9.352 26.5 29-3.521-12.402-11.188-21.069-23-26l-1.5 1c10.483 4.986 17.65 12.986 21.5 24 .808 2.079.641 4.079-.5 6-6.977-11.477-16.143-20.81-27.5-28L22.5 20c9.789 6.122 17.956 13.955 24.5 23.5 1.707 2.409 2.54 5.075 2.5 8-4.858-1.096-9.191-3.262-13-6.5A134.211 134.211 0 0 1 18 24.5c-.667 1-.667 2 0 3C24.629 38.797 33.795 47.297 45.5 53c-9.523 1.16-17.356-2.007-23.5-9.5a78.69 78.69 0 0 1-6.5-10c-1.083.865-1.25 1.865-.5 3C20.041 46.542 27.875 53.375 38.5 57c-16.732 1.768-25.732-5.732-27-22.5l.5-7 3.5-7a10.313 10.313 0 0 0-1-3c1.913-.551 3.913-.718 6-.5a48.492 48.492 0 0 1 8-4.5z"/><path style="opacity:.435" d="M56.5 16.5c1.478-.262 2.811.071 4 1-.82 1.611-2.154 2.278-4 2v-3z"/><path style="opacity:.478" d="M3.5 27.5h3v3c-2.994.354-3.994-.646-3-3z"/><path style="opacity:.532" d="M9.5 52.5h3v3h-3v-3zM55.5 52.5h3v3h-3v-3z"/></svg>