<svg xmlns="http://www.w3.org/2000/svg" width="96" height="96"><path d="M47 6h2l2 4h2l.367 2.012.508 2.675.492 2.637c1.23 5.674 1.23 5.674 5.426 9.45l3.395 1.601C73.168 33.475 78.463 39.39 82 50c.792 11.552.258 19.972-7.25 29.25-5.915 6.359-13.115 10.62-21.922 11.086-11.705.235-19.815-.78-29.14-8.398-7.143-6.93-10.13-13.913-10.375-23.876.124-8.864 2.907-15.75 8.738-22.402 4.485-4.278 9.15-7.036 14.883-9.36 3.43-2.159 3.804-5.193 4.699-8.976l.492-2.637.508-2.675L43 10l3-1 1-3z" fill="#E39135"/><path d="M48 27c8.515 6.082 13.689 15.885 16 26 1.242 11.594-.127 23.17-7.188 32.75-3.493 4.21-3.493 4.21-5.703 4.488-3.788.12-6.427.103-9.859-1.613-7.778-9.074-9.717-19.793-9.5-31.418C32.728 44.667 38.9 35.287 48 27z" fill="#CB7C26"/><path d="M47 6h2l2 4h2c1.478 2.957 1.06 5.742 1 9H42c-.125-6.75-.125-6.75 1-9l3-1 1-3z" fill="#32C480"/><path d="M51 10h2c1.478 2.957 1.06 5.742 1 9l-4-1c-.125-5.75-.125-5.75 1-8zM43 10h2c1.354 2.709 1.065 5.01 1 8l-4 1c-.125-6.75-.125-6.75 1-9z" fill="#22A365"/></svg>