<svg
        xmlns="http://www.w3.org/2000/svg"
        x="0px"
        y="0px"
        width="100"
        height="100"
        viewBox="0 0 32 32"
      >
        <path
          fill="#91c14b"
          fillRule="evenodd"
          d="M20.003,30.003v-2h2v-2	h2v-2h2v-2h2v-6h-2v-6h2v-2h2v-4h-2v2h-2v2h-2v-2h-2v-2h-2v-2h-8v2h-2v2h-2v2h-2v-2h-2v-2h-2v4h2v2h2v6h-2v6h2v2h2v2h2v2h2v2H20.003	z"
          clipRule="evenodd"
        ></path>
        <path
          fill="#00953f"
          fillRule="evenodd"
          d="M10.003,14.003h-2v-4	l1-1h4l1,1v2L10.003,14.003z"
          clipRule="evenodd"
        ></path>
        <path
          fill="#8c1539"
          fillRule="evenodd"
          d="M8.001,8.004v1.999	h6.001V8.004H8.001z"
          clipRule="evenodd"
        ></path>
        <path
          fill="#064678"
          fillRule="evenodd"
          d="M12.001,12.004	l-0.999,0.999l0.999,1h2.001v-1.999H12.001z"
          clipRule="evenodd"
        ></path>
        <path
          fill="#e6e5e5"
          fillRule="evenodd"
          d="M10.001,12.004v1.999	h2.001v-1.999H10.001z"
          clipRule="evenodd"
        ></path>
        <path
          fill="#00953f"
          fillRule="evenodd"
          d="M10.001,20.004v1.999	h2.001v-1.999H10.001z"
          clipRule="evenodd"
        ></path>
        <path
          fill="#00953f"
          fillRule="evenodd"
          d="M12.001,22.003v2.001	h8.001v-2.001H12.001z"
          clipRule="evenodd"
        ></path>
        <path
          fill="#00953f"
          fillRule="evenodd"
          d="M20.001,20.004v1.999	h2.001v-1.999H20.001z"
          clipRule="evenodd"
        ></path>
        <path
          fill="#bdd94e"
          fillRule="evenodd"
          d="M14.003,26.003v2.001	h3.999v-2.001H14.003z"
          clipRule="evenodd"
        ></path>
        <path
          fill="#bdd94e"
          fillRule="evenodd"
          d="M12.003,18.003v-2h2v-2	h4v2h2v2H12.003z"
          clipRule="evenodd"
        ></path>
        <path
          fill="#00953f"
          fillRule="evenodd"
          d="M22.003,14.003h2v-4	l-1-1h-4l-1,1v2L22.003,14.003z"
          clipRule="evenodd"
        ></path>
        <path
          fill="#064678"
          fillRule="evenodd"
          d="M20.001,12.004	L21,13.003l-0.999,1H18v-1.999H20.001z"
          clipRule="evenodd"
        ></path>
        <path
          fill="#e6e5e5"
          fillRule="evenodd"
          d="M22.001,12.004v1.999H20	v-1.999H22.001z"
          clipRule="evenodd"
        ></path>
        <path
          fill="#8c1539"
          fillRule="evenodd"
          d="M18.001,8.004v1.999	h6.001V8.004H18.001z"
          clipRule="evenodd"
        ></path>
      </svg>